<svg version="1.2" xmlns="http://www.w3.org/2000/svg" viewBox="0 0 362 501" width="362" height="501">
	<style>
		.s0 { fill: #ffffff } 
	</style>
	<g id="Background">
		<path id="Path 2" class="s0" d="m82.99 339.75c-0.01 1.45 1.34 1.9 7.75 2.59 4.27 0.47 11.14 1.96 15.26 3.32 4.13 1.35 10.43 4.08 14 6.05 4.2 2.31 9.88 6.98 16.03 13.18 7.67 7.74 10.35 11.26 13.76 18.11 2.33 4.67 5.16 12.1 6.29 16.5 1.41 5.49 2.06 11.3 2.09 18.5 0.03 6.37-0.6 13.25-1.6 17.5-0.9 3.85-3.61 11.05-6.03 16-2.41 4.95-6.9 12.04-9.96 15.75-3.07 3.71-8.39 8.84-11.83 11.4-3.44 2.55-9.85 6.33-14.25 8.39-4.4 2.06-11.26 4.47-15.25 5.35-3.99 0.89-9.27 1.61-11.75 1.61-4 0-4.5 0.25-4.51 2.25-0.01 2.2 0.16 2.23 7.5 1.5 4.13-0.41 11.67-2.1 16.76-3.75 5.09-1.65 12.4-4.9 16.25-7.22 3.85-2.32 10.09-7.16 13.86-10.75 3.77-3.59 8.8-9.45 11.18-13.03 2.37-3.58 5.51-9.2 6.98-12.5 1.46-3.3 3.57-9.83 4.68-14.5 1.67-7.01 1.93-10.69 1.52-21-0.36-9-1.12-14.46-2.71-19.5-1.21-3.85-3.95-10.38-6.08-14.5-2.13-4.13-6.28-10.42-9.23-14-2.94-3.58-7.34-8.14-9.78-10.14-2.43-2.01-7.57-5.5-11.42-7.76-3.85-2.26-10.37-5.22-14.5-6.59-4.12-1.36-10.65-2.92-14.5-3.47-3.85-0.55-7.79-1.01-8.75-1.02-1-0.01-1.75 0.73-1.76 1.73z"/>
		<path id="Path 4" class="s0" d="m65 346.57c-3.57 0.78-10.77 3.54-16 6.12-7.96 3.94-10.97 6.17-18.55 13.76-7.62 7.61-9.8 10.56-13.73 18.55-2.56 5.23-5.35 12.42-6.18 16-0.83 3.58-1.51 11-1.51 16.5 0 5.5 0.67 13.15 1.48 17 0.81 3.85 3.46 11.05 5.88 16 2.43 4.95 6.59 11.57 9.26 14.72 2.67 3.15 7.78 8.04 11.35 10.88 3.57 2.83 8.98 6.4 12 7.91 3.02 1.52 8.43 3.67 12 4.78 3.57 1.11 9.75 2.4 13.72 2.86l7.22 0.85 0.65-18 0.39 18c10.48-1.27 17.57-2.94 22.52-4.54 5.48-1.76 11.94-4.81 16.5-7.8 4.13-2.69 10.58-8.22 14.35-12.28 5.03-5.42 8.14-10.03 11.73-17.38 3.24-6.64 5.44-12.85 6.54-18.5 1.14-5.86 1.48-11.14 1.1-17-0.3-4.67-1.29-11.42-2.21-15-0.91-3.58-3.15-9.65-4.99-13.5-1.83-3.85-5.78-10.15-8.79-14-3-3.85-8.11-9.09-11.34-11.65-3.24-2.56-9.71-6.5-14.39-8.75-4.68-2.26-11.65-4.77-15.5-5.58-3.85-0.82-8.94-1.49-11.31-1.5l-4.3-0.02-0.48 16.5-0.41-16.5c-8.14 0.12-13.43 0.8-17 1.57z"/>
		<path id="Path 5" class="s0" d="m70.5 339.12c-3.3 0.48-8.25 1.52-11 2.31-2.75 0.79-9.05 3.48-14 5.98-6.16 3.11-11.49 6.84-16.9 11.82-4.35 4-9.72 9.97-11.94 13.27-2.23 3.3-5.48 9.15-7.23 13-1.76 3.85-4 10.15-4.99 14-1.24 4.82-1.81 10.73-1.81 19-0.01 9.43 0.47 13.71 2.24 20 1.23 4.4 3.78 11.15 5.65 15 1.88 3.85 5.61 9.92 8.3 13.5 2.69 3.58 8.22 9.22 12.28 12.54 4.07 3.33 11.22 7.94 15.9 10.24 4.68 2.31 11.2 4.9 14.5 5.76 3.3 0.86 9.27 1.88 13.26 2.26 6.82 0.66 7.26 0.58 7.26-1.3 0-1.77-0.9-2.08-7.76-2.69-4.27-0.39-11.36-1.84-15.76-3.23-4.4-1.39-10.93-4.23-14.5-6.3-3.63-2.11-10.49-7.75-15.54-12.78-6.91-6.88-10.01-10.88-13.15-17-2.26-4.4-5.09-11.15-6.28-15-1.41-4.54-2.36-10.86-2.7-18-0.37-7.71-0.09-13.09 0.95-18 0.81-3.85 2.66-9.92 4.1-13.5 1.45-3.58 4.09-8.9 5.88-11.84 1.78-2.94 5.72-8.07 8.74-11.4 3.02-3.33 8.2-7.96 11.5-10.29 3.3-2.33 8.25-5.36 11-6.74 2.75-1.37 7.93-3.41 11.5-4.53 3.57-1.12 9.99-2.4 14.26-2.86 6.41-0.69 7.76-1.14 7.75-2.59-0.01-1.27-0.76-1.72-2.76-1.63-1.51 0.07-5.45 0.52-8.75 1z"/>
		<path id="Path 16" class="s0" d="m2 109.5v105.5c21.31 6.87 30.65 9.59 34.5 10.48 3.85 0.89 11.5 2.27 17 3.06 5.5 0.79 16.3 1.72 24 2.07 8.45 0.38 18.56 0.16 25.5-0.55 6.32-0.64 16.68-2.22 23-3.5 6.32-1.28 17.13-4.2 24-6.48 6.88-2.28 17.9-6.75 24.5-9.93 6.6-3.18 15.82-8.2 20.5-11.15 4.67-2.96 12.33-8.32 17-11.92 4.67-3.6 12.26-10.16 16.86-14.56 4.6-4.41 11.41-11.62 15.14-16.02 3.73-4.4 10.21-13.06 14.39-19.25 4.19-6.19 10.52-17.21 14.08-24.5 3.55-7.29 8.28-18.76 10.5-25.5 2.22-6.74 5.12-17.76 6.44-24.5 1.33-6.74 2.68-14.84 3-18l0.59-5.75h29c-0.86 8.14-1.99 15.9-3.06 22.5-1.07 6.6-3.47 17.4-5.35 24-1.87 6.6-5.08 16.27-7.13 21.5-2.05 5.23-5.97 14-8.71 19.5-2.73 5.5-7.27 13.82-10.09 18.5-2.81 4.68-8.31 12.77-12.22 18-3.91 5.23-10.92 13.77-15.58 19-4.66 5.23-13.43 13.77-19.49 19-6.05 5.23-15.03 12.25-19.94 15.62-4.91 3.36-13.88 8.96-19.93 12.43-6.05 3.47-15.5 8.27-21 10.67-5.5 2.39-15.4 6.1-22 8.23-6.6 2.13-16.27 4.78-21.5 5.9-5.23 1.11-14.23 2.69-20 3.51-5.77 0.81-15.34 1.74-21.25 2.06l-10.75 0.58-0.01 34.5c15.89 1.15 24.56 2.19 29.51 3.05 4.95 0.86 13.73 2.92 19.5 4.58 5.77 1.67 15.45 5.25 21.5 7.96 6.05 2.72 14.51 7.07 18.8 9.67 4.28 2.61 11.26 7.32 15.5 10.48 4.23 3.16 12.12 10.14 17.53 15.5 5.41 5.37 12.87 13.81 16.58 18.76 3.71 4.95 8.35 11.7 10.31 15 1.96 3.3 5.36 9.6 7.56 14 2.19 4.4 5.41 12.05 7.16 17 1.74 4.95 4.07 12.6 5.18 17 1.11 4.4 2.66 12.5 3.43 18 0.78 5.5 1.42 17.09 1.43 25.75l0.02 15.75h100c-0.01-16.66-0.47-27.8-1.03-35.5-0.55-7.7-1.7-18.5-2.56-24-0.85-5.5-2.85-15.4-4.44-22-1.6-6.6-4.94-17.96-7.44-25.25-2.49-7.29-6.55-17.75-9.03-23.25-2.48-5.5-6.79-14.16-9.59-19.25-2.81-5.09-8.41-14.2-12.45-20.25-4.05-6.05-10.4-14.83-14.11-19.5-3.71-4.67-12.84-14.61-20.3-22.07-7.45-7.46-15.24-14.77-17.3-16.25l-3.75-2.68c-19.76 12.95-26.51 17.22-27.75 17.85-1.24 0.63-2.25 1.6-2.25 2.15 0 0.55 3.04 3.34 6.75 6.2 3.71 2.85 11.64 9.94 17.61 15.75 5.98 5.8 14.32 14.82 18.54 20.05 4.22 5.23 9.94 12.87 12.72 17 2.77 4.12 7.57 12 10.67 17.5 3.09 5.5 7.83 15.17 10.54 21.5 2.71 6.33 6.37 16 8.13 21.5 1.76 5.5 4.27 14.73 5.58 20.5 1.3 5.77 3.07 15.79 3.91 22.25 0.85 6.46 1.55 11.98 1.55 12.25 0 0.27-6.52 0.5-14.5 0.5h-14.5c-0.94-8.91-2.27-16.9-3.55-23.5-1.29-6.6-4.25-17.85-6.59-25-2.34-7.15-7.27-19.08-10.96-26.5-3.68-7.42-9.37-17.55-12.63-22.5-3.26-4.95-8.66-12.38-11.99-16.5-3.33-4.13-10.04-11.5-14.92-16.38-4.87-4.89-12.46-11.78-16.86-15.31-4.4-3.53-11.6-8.83-16-11.78-4.4-2.94-12.05-7.48-17-10.09l-9-4.73c18.6-7.3 29.4-12.14 36-15.45 6.6-3.32 16.73-9.17 22.5-13 5.77-3.83 14.77-10.27 20-14.33 5.23-4.05 15.52-13.23 22.87-20.4 7.36-7.16 17.17-17.76 21.81-23.53 4.64-5.77 11.29-14.77 14.79-20 3.5-5.23 9.11-14.45 12.46-20.5 3.34-6.05 8.16-15.73 10.7-21.5 2.54-5.77 6.77-17.02 9.4-25 2.63-7.98 5.94-19.68 7.34-26 1.41-6.32 3.26-16.68 4.12-23 0.86-6.32 1.88-20.84 2.28-32.25l0.73-20.76h-99c-1.25 25.2-2.26 37.01-3.06 42.51-0.8 5.5-2.6 14.27-4 19.5-1.41 5.23-4.32 14-6.47 19.5-2.16 5.5-6.74 14.95-10.2 21-3.45 6.05-9.17 14.82-12.7 19.5-3.53 4.68-11.22 13.23-17.08 19-5.87 5.77-14.23 13.06-18.58 16.18-4.35 3.13-11.73 7.96-16.41 10.75-4.68 2.79-13.34 7.1-19.25 9.57-5.91 2.48-14.69 5.65-19.5 7.05-4.81 1.4-13.93 3.45-20.25 4.56-7.99 1.39-16.23 2.02-27 2.07-9.63 0.04-19.67-0.57-26.5-1.59-6.05-0.91-13.25-2.23-16-2.94l-5-1.28-0.5-150.37h29c0 122.29 0.27 137.14 1.25 137.64 0.69 0.35 7.77 0.64 15.75 0.64 7.98-0.01 15.51-0.3 16.75-0.64l2.25-0.64v-172h-100z"/>
	</g>
</svg>